<?xml version="1.0" encoding="UTF-8"?>
<!DOCTYPE svg PUBLIC "-//W3C//DTD SVG 1.1//EN" "http://www.w3.org/Graphics/SVG/1.1/DTD/svg11.dtd">
<svg xmlns="http://www.w3.org/2000/svg" version="1.1" width="512px" height="512px" style="shape-rendering:geometricPrecision; text-rendering:geometricPrecision; image-rendering:optimizeQuality; fill-rule:evenodd; clip-rule:evenodd" xmlns:xlink="http://www.w3.org/1999/xlink">
<g><path style="opacity:0.919" fill="#000000" d="M 192.5,42.5 C 241.314,38.8266 279.147,57.1599 306,97.5C 310.699,107.935 315.199,118.435 319.5,129C 351.251,139.123 379.251,155.456 403.5,178C 432.126,204.424 453.96,235.591 469,271.5C 480.057,300.235 484.391,329.902 482,360.5C 470.143,424.024 432.143,459.691 368,467.5C 327.76,470.649 291.26,460.482 258.5,437C 241.409,424.577 226.243,410.077 213,393.5C 194.023,403.028 173.856,407.694 152.5,407.5C 86.987,403.481 47.1536,369.481 33,305.5C 18.7028,226.004 38.0361,156.004 91,95.5C 112.23,72.6331 137.73,56.4665 167.5,47C 175.898,45.0466 184.231,43.5466 192.5,42.5 Z M 257.5,67.5 C 230.125,63.9058 205.458,70.4058 183.5,87C 154.185,110.437 131.685,139.27 116,173.5C 93.5097,219.599 86.5097,267.932 95,318.5C 100.226,347.127 113.392,371.293 134.5,391C 136.167,392 137.833,393 139.5,394C 120.333,392.249 103.333,385.249 88.5,373C 58.9901,345.794 44.3234,311.961 44.5,271.5C 44.3721,207.35 65.2054,151.35 107,103.5C 121.559,87.5981 138.392,74.7648 157.5,65C 182.337,54.2947 208.003,51.628 234.5,57C 242.765,59.4704 250.432,62.9704 257.5,67.5 Z M 244.5,77.5 C 273.058,80.8834 292.891,95.8834 304,122.5C 315.975,153.914 319.308,186.247 314,219.5C 307.294,261.56 291.294,299.56 266,333.5C 257.847,323.864 250.68,313.531 244.5,302.5C 272.588,250.634 282.088,195.634 273,137.5C 268.008,115.189 258.508,95.1895 244.5,77.5 Z M 224.5,79.5 C 235.312,92.9391 243.978,107.772 250.5,124C 217.333,131.862 192.167,150.362 175,179.5C 156.228,211.222 150.561,245.222 158,281.5C 162.738,303.975 170.571,325.308 181.5,345.5C 171.701,355.404 160.035,362.237 146.5,366C 140.167,366.667 133.833,366.667 127.5,366C 112.355,343.564 104.188,318.73 103,291.5C 102.269,226.324 122.936,168.991 165,119.5C 181.498,101.016 201.331,87.6822 224.5,79.5 Z M 252.5,140.5 C 253.822,140.33 254.989,140.663 256,141.5C 257.951,148.753 259.451,156.086 260.5,163.5C 249.077,163.114 237.744,163.781 226.5,165.5C 226.167,165.167 225.833,164.833 225.5,164.5C 232.633,154.365 241.633,146.365 252.5,140.5 Z M 443.5,401.5 C 447.635,386.37 448.468,371.036 446,355.5C 439.229,308.964 419.896,268.63 388,234.5C 370.008,215.857 350.008,199.857 328,186.5C 327.916,171.733 326.082,157.233 322.5,143C 348.33,151.416 371.33,164.75 391.5,183C 418.395,207.309 439.562,235.809 455,268.5C 469.633,300.922 473.966,334.589 468,369.5C 464.369,383.818 456.202,394.484 443.5,401.5 Z M 222.5,148.5 C 208.076,165.77 201.41,185.77 202.5,208.5C 203.668,242.17 212.834,273.504 230,302.5C 251.213,340.382 280.046,371.215 316.5,395C 343.728,411.908 373.394,421.075 405.5,422.5C 419.68,422.139 433.347,419.639 446.5,415C 424.743,441.457 396.576,454.624 362,454.5C 336.261,453.586 312.428,446.42 290.5,433C 250.618,409.451 219.118,377.618 196,337.5C 180.085,308.341 171.252,277.175 169.5,244C 171.013,216.454 179.847,191.621 196,169.5C 203.29,160.358 212.123,153.358 222.5,148.5 Z M 235.5,179.5 C 244.167,179.5 252.833,179.5 261.5,179.5C 262.871,216.353 253.204,250.02 232.5,280.5C 215.529,249.675 210.362,217.008 217,182.5C 223.221,181.198 229.387,180.198 235.5,179.5 Z M 327.5,206.5 C 346.508,216.996 363.008,230.663 377,247.5C 408.518,283.554 426.685,325.554 431.5,373.5C 431.635,387.608 426.968,399.775 417.5,410C 373.828,410.999 335.161,397.665 301.5,370C 291.863,361.364 282.53,352.364 273.5,343C 304.06,302.678 322.06,257.178 327.5,206.5 Z M 190.5,363.5 C 192.074,363.937 193.241,364.937 194,366.5C 197.46,372.59 201.294,378.423 205.5,384C 186.272,394.774 166.939,395.107 147.5,385C 163.774,381.53 178.107,374.363 190.5,363.5 Z"/></g>
</svg>
